<?xml version="1.0" encoding="UTF-8"?>
<svg xmlns="http://www.w3.org/2000/svg" viewBox="0 0 1536 1536" width="60" height="60">
  <title>MN Crown Logo</title>
  <desc>Vectorized MN crown logo converted from the supplied image.</desc>
  <rect width="100%" height="100%" fill="#000000"/>
  <g fill="#ffffff" fill-rule="evenodd">
    <path d="M 996.0,623.0 L 927.0,623.0 L 926.0,747.0 L 854.0,623.0 L 785.0,623.0 L 785.0,1179.0 L 854.0,1092.0 L 854.0,772.0 L 860.0,775.0 L 959.0,954.0 L 996.0,908.0 Z"/> <path d="M 541.0,622.0 L 539.0,908.0 L 608.0,995.0 L 608.0,754.0 L 612.0,753.0 L 646.0,785.0 L 680.0,753.0 L 681.0,1092.0 L 750.0,1179.0 L 750.0,623.0 L 710.0,622.0 L 644.0,686.0 L 581.0,623.0 Z"/> <path d="M 513.0,462.0 L 509.0,466.0 L 509.0,467.0 L 508.0,468.0 L 508.0,469.0 L 507.0,470.0 L 507.0,475.0 L 508.0,476.0 L 508.0,477.0 L 509.0,478.0 L 509.0,479.0 L 512.0,482.0 L 512.0,483.0 L 513.0,483.0 L 514.0,484.0 L 515.0,484.0 L 516.0,485.0 L 529.0,485.0 L 531.0,487.0 L 533.0,487.0 L 533.0,482.0 L 535.0,480.0 L 535.0,479.0 L 537.0,477.0 L 537.0,469.0 L 536.0,468.0 L 536.0,467.0 L 535.0,466.0 L 535.0,465.0 L 532.0,462.0 L 531.0,462.0 L 530.0,461.0 L 528.0,461.0 L 527.0,460.0 L 517.0,460.0 L 516.0,461.0 L 515.0,461.0 L 514.0,462.0 Z"/> <path d="M 1023.0,462.0 L 1022.0,462.0 L 1021.0,461.0 L 1020.0,461.0 L 1019.0,460.0 L 1018.0,460.0 L 1017.0,459.0 L 1012.0,459.0 L 1011.0,460.0 L 1008.0,460.0 L 1007.0,461.0 L 1006.0,461.0 L 1004.0,463.0 L 1003.0,463.0 L 1000.0,466.0 L 1000.0,468.0 L 999.0,469.0 L 999.0,476.0 L 1000.0,477.0 L 1000.0,479.0 L 1003.0,482.0 L 1003.0,483.0 L 1004.0,484.0 L 1004.0,486.0 L 1006.0,486.0 L 1007.0,485.0 L 1020.0,485.0 L 1022.0,483.0 L 1023.0,483.0 L 1026.0,480.0 L 1026.0,479.0 L 1027.0,478.0 L 1027.0,477.0 L 1028.0,476.0 L 1028.0,470.0 L 1027.0,469.0 L 1027.0,468.0 L 1026.0,467.0 L 1026.0,466.0 L 1025.0,465.0 L 1025.0,464.0 Z"/> <path d="M 543.0,499.0 L 576.0,545.0 L 598.0,589.0 L 937.0,589.0 L 965.0,537.0 L 994.0,497.0 L 965.0,520.0 L 944.0,529.0 L 929.0,527.0 L 915.0,515.0 L 909.0,501.0 L 908.0,482.0 L 917.0,433.0 L 921.0,428.0 L 938.0,424.0 L 945.0,412.0 L 938.0,397.0 L 920.0,393.0 L 911.0,397.0 L 905.0,407.0 L 906.0,417.0 L 915.0,431.0 L 888.0,469.0 L 848.0,501.0 L 832.0,506.0 L 819.0,503.0 L 806.0,491.0 L 792.0,468.0 L 771.0,394.0 L 790.0,379.0 L 790.0,365.0 L 780.0,354.0 L 765.0,351.0 L 754.0,355.0 L 745.0,368.0 L 748.0,383.0 L 764.0,393.0 L 756.0,434.0 L 739.0,479.0 L 722.0,499.0 L 697.0,506.0 L 665.0,489.0 L 623.0,434.0 L 621.0,426.0 L 630.0,417.0 L 631.0,406.0 L 625.0,397.0 L 616.0,393.0 L 598.0,397.0 L 591.0,406.0 L 591.0,414.0 L 601.0,426.0 L 615.0,428.0 L 622.0,444.0 L 627.0,495.0 L 620.0,518.0 L 607.0,528.0 L 588.0,528.0 Z"/>
  </g>
</svg>
